<?xml version="1.0" encoding="UTF-8"?>
<svg version="1.1" xmlns="http://www.w3.org/2000/svg" width="100" height="100" viewBox="0 0 100 100">
  <!-- Ears -->
  <path d="M 22,35 L 12,5 L 38,25 Z" fill="#E67E22" />
  <path d="M 24,32 L 17,11 L 34,24 Z" fill="#F1948A" />
  <path d="M 78,35 L 88,5 L 62,25 Z" fill="#E67E22" />
  <path d="M 76,32 L 83,11 L 66,24 Z" fill="#F1948A" />
  
  <!-- Head -->
  <ellipse cx="50" cy="50" rx="40" ry="32" fill="#F39C12" />
  
  <!-- Cheek white patches -->
  <path d="M 50,58 C 45,58 35,62 30,55 C 25,48 30,42 40,42 C 45,42 50,47 50,50 C 50,47 55,42 60,42 C 70,42 75,48 70,55 C 65,62 55,58 50,58 Z" fill="#FDFEFE" />
  
  <!-- Forehead stripes -->
  <path d="M 45,18 L 50,28 L 55,18 Z" fill="#D35400" />
  <path d="M 37,20 L 41,27 L 43,20 Z" fill="#D35400" />
  <path d="M 63,20 L 59,27 L 57,20 Z" fill="#D35400" />
  
  <!-- Body/side stripes -->
  <path d="M 12,46 L 22,48 L 12,52 Z" fill="#D35400" />
  <path d="M 88,46 L 78,48 L 88,52 Z" fill="#D35400" />

  <!-- Eyes -->
  <!-- Cute anime/chibi eyes -->
  <!-- Left Eye -->
  <ellipse cx="32" cy="44" rx="7" ry="9" fill="#1C2833" />
  <circle cx="30" cy="40" r="2.5" fill="#FFFFFF" />
  <circle cx="34" cy="47" r="1" fill="#FFFFFF" />
  
  <!-- Right Eye -->
  <ellipse cx="68" cy="44" rx="7" ry="9" fill="#1C2833" />
  <circle cx="66" cy="40" r="2.5" fill="#FFFFFF" />
  <circle cx="70" cy="47" r="1" fill="#FFFFFF" />

  <!-- Cute blush cheeks -->
  <ellipse cx="22" cy="54" rx="5" ry="3" fill="#FADBD8" opacity="0.8" />
  <ellipse cx="78" cy="54" rx="5" ry="3" fill="#FADBD8" opacity="0.8" />

  <!-- Nose -->
  <polygon points="47,51 53,51 50,55" fill="#E84A5F" />

  <!-- Mouth -->
  <path d="M 46,55 Q 48,58 50,55 Q 52,58 54,55" fill="none" stroke="#2C3E50" stroke-width="2" stroke-linecap="round" />

  <!-- Whiskers -->
  <line x1="20" y1="52" x2="3" y2="51" stroke="#2C3E50" stroke-width="2" stroke-linecap="round" />
  <line x1="20" y1="56" x2="4" y2="58" stroke="#2C3E50" stroke-width="2" stroke-linecap="round" />
  <line x1="80" y1="52" x2="97" y2="51" stroke="#2C3E50" stroke-width="2" stroke-linecap="round" />
  <line x1="80" y1="56" x2="96" y2="58" stroke="#2C3E50" stroke-width="2" stroke-linecap="round" />
</svg>
